# xmcd
#
# Track frame offsets:
#	150
#	17344
#	38825
#	57187
#	85945
#	107367
#	125222
#	144250
#	163886
#	181997
#	199368
#	216331
#	233833
#	250573
#	268294
#	282422
#	300529
#	324945
#
# Disc length: 4569 seconds
#
# Revision: 1
# Processed by: cddbd v1.5.2PL0 Copyright (c) Steve Scherf et al.
# Submitted via: EasyCDDAExtractor 11.1.0.1
#
DISCID=fe11d712
DTITLE=Keith Urban - Greatest Hits
DYEAR=2007
DGENRE=Country
TTITLE0=Romeo's Tune
TTITLE1=Got It Right This Time (The Celebration)
TTITLE2=I Told You So
TTITLE3=Stupid Boy
TTITLE4=Better Life
TTITLE5=Making Memories Of Us
TTITLE6=Once In A Lifetime
TTITLE7=Tonight I Wanna Cry
TTITLE8=You're My Better Half
TTITLE9=Days Go By
TTITLE10=But For The Grace Of God
TTITLE11=You'll Think Of Me
TTITLE12=Who Wouldn't Wanna Be Me
TTITLE13=Raining On Sunday
TTITLE14=Where The Blacktop Ends
TTITLE15=Your Everything
TTITLE16=Somebody Like You (Album Version)
TTITLE17=Everybody
EXTD=
EXTT0=
EXTT1=
EXTT2=
EXTT3=
EXTT4=
EXTT5=
EXTT6=
EXTT7=
EXTT8=
EXTT9=
EXTT10=
EXTT11=
EXTT12=
EXTT13=
EXTT14=
EXTT15=
EXTT16=
EXTT17=
PLAYORDER=
